<svg xmlns="http://www.w3.org/2000/svg" width="2360" height="1196" viewBox="0 0 2360 1196">
  <defs>
    <style>
      .cls-1 {
        fill-rule: evenodd;
      }
    </style>
  </defs>
  <path class="cls-1" d="M50,706L417.817,597.972,480,525s-80.354,4.092-80-17c2.262-134.746,120-334,120-334L476,480l65-19S718.236,196.285,778,162c66.552-38.179,189-75,189-75l24-22L632,86l-37,53s54.694-15.929,70-7c12,7-98,203-98,203L583,50,466,105S336.369,429.166,235,531c-49.253,49.479-114,90-114,90Zm971-286,50-14s-24,59-59,87S571.267,667.392,522,675c-38.616,5.963-35-82-35-82l-18,7L314,881s32.047-36.112,58-52c48.638-29.776,709-305,709-305l215-329-133-6Zm63-56,71-19,68-106-49-7Zm37,148,77-27,50-131s20-2,26,16-2,41-2,41l98-120-110,39,25-38-38,15Zm455-50,53-21,49-103s38.43-10.92,41.28,1.282c8.84,37.867-77.78,140.8-74.28,142.718l48-21,133-190-127,34,23-35-49,16Zm175-39,127-37s105.5-202,157-239,107-46,107-46l25-19-167,2-76,149-62,14Zm71-62,44-11,45-92-34,8ZM2220,91s-68.5,70.5-99,88c-15.9,9.126-108,43-108,43L1903,380l86-32s-66.5,78.5-150,108c-32.7,11.551-390,95-390,95l-92,121s91.75-48.451,122-59c76-26.5,453-109,453-109l205-248-145,45,38-54,131-44ZM1536,808l120-211,509-128s-513.24,492.065-472,512c31.63,15.288,356-81,356-81l114-163,24-7,48,67-114,65-22,30s120.59-33.353,137-52c22-25,55-129,55-129l19-9-42,233-857,211,533-551s-183,61-216,85-121,103-121,103Zm597,12,53-25-13-25ZM1758,946l171-55,22-32c0.27-.118-26.01,7.279-35.14-5.1C1906.96,841.832,1969,744,1969,744l-35,9Zm211.96-230.755-4.21-31.34,72.31-48.337,1.64,50.193ZM1957,881l52-21,50-103s22.15-4.2,25,8c8.84,37.867-90.5,136.079-87,138l48-21,146-211-111,53,8-24-69,32ZM999,427L486,577,698,295l57.018-15.746L748,403,579,504l162-48s101.213-147.71,84-177c-26.682-45.4-114-7-114-7l35-48,205-41L797,440l85-22s31.687-51.74,25-70c-3.171-8.657-33-2-33-2l14-22,112.24-45.4L926,406s30.206-6.63,52-19c18.5-10.5,69-128,69-128l66-26ZM645,414l67-23,4-70Zm851-89,24-32,130-42L1542,440l42-21-36,52L1256,595l121-166,58-31s-72.21,122.966-49,113c22.92-9.841,82.54-33.877,97-47,32.5-29.5,69.44-137.1,59-146C1531.98,309.451,1496,325,1496,325ZM1229,506l181-63s101.54-185.44,113-197c11.32-11.416,104.01-40.995,104-41l29-31-269,54-43,49s35.78-11.733,47-5c12.5,7.5-91,169-116,194C1265.38,475.618,1229,506,1229,506Zm98-78,61-23,79-138-42,7Z"/>
</svg>
